<svg width="24" height="23" viewBox="0 0 24 23" fill="none" xmlns="http://www.w3.org/2000/svg">
<g id="cart-icon">
<g id="Group">
<path id="Vector" d="M20.6929 6.25L18.5471 14.8333H6.86955L4.72372 6.25H20.6929Z" stroke="#111924"/>
<path id="Vector_2" d="M1.6875 2.875H3.36458L4.08333 5.75M4.08333 5.75L6.47917 15.3333H18.9375L21.3333 5.75H4.08333Z" stroke="#111924" stroke-linecap="round" stroke-linejoin="round"/>
<path id="Vector_3" d="M6.47917 20.125C7.27308 20.125 7.91667 19.4814 7.91667 18.6875C7.91667 17.8936 7.27308 17.25 6.47917 17.25C5.68526 17.25 5.04167 17.8936 5.04167 18.6875C5.04167 19.4814 5.68526 20.125 6.47917 20.125Z" stroke="#111924" stroke-linecap="round" stroke-linejoin="round"/>
<path id="Vector_4" d="M18.9375 20.125C19.7314 20.125 20.375 19.4814 20.375 18.6875C20.375 17.8936 19.7314 17.25 18.9375 17.25C18.1436 17.25 17.5 17.8936 17.5 18.6875C17.5 19.4814 18.1436 20.125 18.9375 20.125Z" stroke="#111924" stroke-linecap="round" stroke-linejoin="round"/>
</g>
</g>
</svg>
